<?xml version="1.0"?>
<!-- Created by MetaPost 1.902 on 2015.04.11:0753 -->
<svg version="1.1" xmlns="http://www.w3.org/2000/svg" xmlns:xlink="http://www.w3.org/1999/xlink" width="463.066986" height="206.285629" viewBox="0 0 463.066986 206.285629">
<!-- Original BoundingBox: -107.101288 -33.957199 355.965698 172.328430 -->
  <defs>
    <g transform="scale(0.009963,0.009963)" id="GLYPHcmsy10_2">
      <path style="fill-rule: evenodd;" d="M389.000000 -278.000000L189.000000 -477.000000C177.000000 -489.000000,175.000000 -491.000000,167.000000 -491.000000C157.000000 -491.000000,147.000000 -482.000000,147.000000 -471.000000C147.000000 -464.000000,149.000000 -462.000000,160.000000 -451.000000L360.000000 -250.000000L160.000000 -49.000000C149.000000 -38.000000,147.000000 -36.000000,147.000000 -29.000000C147.000000 -18.000000,157.000000 -9.000000,167.000000 -9.000000C175.000000 -9.000000,177.000000 -11.000000,189.000000 -23.000000L388.000000 -222.000000L595.000000 -15.000000C597.000000 -14.000000,604.000000 -9.000000,610.000000 -9.000000C622.000000 -9.000000,630.000000 -18.000000,630.000000 -29.000000C630.000000 -31.000000,630.000000 -35.000000,627.000000 -40.000000C626.000000 -42.000000,467.000000 -199.000000,417.000000 -250.000000L600.000000 -433.000000C605.000000 -439.000000,620.000000 -452.000000,625.000000 -458.000000C626.000000 -460.000000,630.000000 -464.000000,630.000000 -471.000000C630.000000 -482.000000,622.000000 -491.000000,610.000000 -491.000000C602.000000 -491.000000,598.000000 -487.000000,587.000000 -476.000000"></path>
    </g>
    <g transform="scale(0.009963,0.009963)" id="GLYPHcmr10_46">
      <path style="fill-rule: evenodd;" d="M192.000000 -53.000000C192.000000 -82.000000,168.000000 -106.000000,139.000000 -106.000000C110.000000 -106.000000,86.000000 -82.000000,86.000000 -53.000000C86.000000 -24.000000,110.000000 -0.000000,139.000000 -0.000000C168.000000 -0.000000,192.000000 -24.000000,192.000000 -53.000000"></path>
    </g>
    <g transform="scale(0.009963,0.009963)" id="GLYPHcmr10_48">
      <path style="fill-rule: evenodd;" d="M460.000000 -320.000000C460.000000 -400.000000,455.000000 -480.000000,420.000000 -554.000000C374.000000 -650.000000,292.000000 -666.000000,250.000000 -666.000000C190.000000 -666.000000,117.000000 -640.000000,76.000000 -547.000000C44.000000 -478.000000,39.000000 -400.000000,39.000000 -320.000000C39.000000 -245.000000,43.000000 -155.000000,84.000000 -79.000000C127.000000 2.000000,200.000000 22.000000,249.000000 22.000000C303.000000 22.000000,379.000000 1.000000,423.000000 -94.000000C455.000000 -163.000000,460.000000 -241.000000,460.000000 -320.000000M249.000000 -0.000000C210.000000 -0.000000,151.000000 -25.000000,133.000000 -121.000000C122.000000 -181.000000,122.000000 -273.000000,122.000000 -332.000000C122.000000 -396.000000,122.000000 -462.000000,130.000000 -516.000000C149.000000 -635.000000,224.000000 -644.000000,249.000000 -644.000000C282.000000 -644.000000,348.000000 -626.000000,367.000000 -527.000000C377.000000 -471.000000,377.000000 -395.000000,377.000000 -332.000000C377.000000 -257.000000,377.000000 -189.000000,366.000000 -125.000000C351.000000 -30.000000,294.000000 -0.000000,249.000000 -0.000000"></path>
    </g>
    <g transform="scale(0.009963,0.009963)" id="GLYPHcmr10_49">
      <path style="fill-rule: evenodd;" d="M294.000000 -640.000000C294.000000 -664.000000,294.000000 -666.000000,271.000000 -666.000000C209.000000 -602.000000,121.000000 -602.000000,89.000000 -602.000000L89.000000 -571.000000C109.000000 -571.000000,168.000000 -571.000000,220.000000 -597.000000L220.000000 -79.000000C220.000000 -43.000000,217.000000 -31.000000,127.000000 -31.000000L95.000000 -31.000000L95.000000 -0.000000L257.000000 -0.000000L130.000000 -3.000000L217.000000 -3.000000L257.000000 -3.000000L297.000000 -3.000000L384.000000 -3.000000L419.000000 -0.000000L419.000000 -31.000000L387.000000 -31.000000C297.000000 -31.000000,294.000000 -42.000000,294.000000 -79.000000"></path>
    </g>
    <g transform="scale(0.009963,0.009963)" id="GLYPHcmr10_50">
      <path style="fill-rule: evenodd;" d="M127.000000 -77.000000L233.000000 -180.000000C389.000000 -318.000000,449.000000 -372.000000,449.000000 -472.000000C449.000000 -586.000000,359.000000 -666.000000,237.000000 -666.000000C124.000000 -666.000000,50.000000 -574.000000,50.000000 -485.000000C50.000000 -429.000000,100.000000 -429.000000,103.000000 -429.000000C120.000000 -429.000000,155.000000 -441.000000,155.000000 -482.000000C155.000000 -508.000000,137.000000 -534.000000,102.000000 -534.000000C94.000000 -534.000000,92.000000 -534.000000,89.000000 -533.000000C112.000000 -598.000000,166.000000 -635.000000,224.000000 -635.000000C315.000000 -635.000000,358.000000 -554.000000,358.000000 -472.000000C358.000000 -392.000000,308.000000 -313.000000,253.000000 -251.000000L61.000000 -37.000000C50.000000 -26.000000,50.000000 -24.000000,50.000000 -0.000000L421.000000 -0.000000L449.000000 -174.000000L424.000000 -174.000000C419.000000 -144.000000,412.000000 -100.000000,402.000000 -85.000000C395.000000 -77.000000,329.000000 -77.000000,307.000000 -77.000000"></path>
    </g>
    <g transform="scale(0.009963,0.009963)" id="GLYPHcmr10_51">
      <path style="fill-rule: evenodd;" d="M290.000000 -352.000000C372.000000 -379.000000,430.000000 -449.000000,430.000000 -528.000000C430.000000 -610.000000,342.000000 -666.000000,246.000000 -666.000000C145.000000 -666.000000,69.000000 -606.000000,69.000000 -530.000000C69.000000 -497.000000,91.000000 -478.000000,120.000000 -478.000000C151.000000 -478.000000,171.000000 -500.000000,171.000000 -529.000000C171.000000 -579.000000,124.000000 -579.000000,109.000000 -579.000000C140.000000 -628.000000,206.000000 -641.000000,242.000000 -641.000000C283.000000 -641.000000,338.000000 -619.000000,338.000000 -529.000000C338.000000 -517.000000,336.000000 -459.000000,310.000000 -415.000000C280.000000 -367.000000,246.000000 -364.000000,221.000000 -363.000000C213.000000 -362.000000,189.000000 -360.000000,182.000000 -360.000000C174.000000 -359.000000,167.000000 -358.000000,167.000000 -348.000000C167.000000 -337.000000,174.000000 -337.000000,191.000000 -337.000000L235.000000 -337.000000C317.000000 -337.000000,354.000000 -269.000000,354.000000 -171.000000C354.000000 -35.000000,285.000000 -6.000000,241.000000 -6.000000C198.000000 -6.000000,123.000000 -23.000000,88.000000 -82.000000C123.000000 -77.000000,154.000000 -99.000000,154.000000 -137.000000C154.000000 -173.000000,127.000000 -193.000000,98.000000 -193.000000C74.000000 -193.000000,42.000000 -179.000000,42.000000 -135.000000C42.000000 -44.000000,135.000000 22.000000,244.000000 22.000000C366.000000 22.000000,457.000000 -69.000000,457.000000 -171.000000C457.000000 -253.000000,394.000000 -331.000000,290.000000 -352.000000"></path>
    </g>
    <g transform="scale(0.009963,0.009963)" id="GLYPHcmr10_52">
      <path style="fill-rule: evenodd;" d="M294.000000 -165.000000L294.000000 -78.000000C294.000000 -42.000000,292.000000 -31.000000,218.000000 -31.000000L197.000000 -31.000000L197.000000 -0.000000L332.000000 -0.000000L238.000000 -3.000000L290.000000 -3.000000L332.000000 -3.000000L374.000000 -3.000000L427.000000 -3.000000L468.000000 -0.000000L468.000000 -31.000000L447.000000 -31.000000C373.000000 -31.000000,371.000000 -42.000000,371.000000 -78.000000L371.000000 -165.000000L471.000000 -165.000000L471.000000 -196.000000L371.000000 -196.000000L371.000000 -651.000000C371.000000 -671.000000,371.000000 -677.000000,355.000000 -677.000000C346.000000 -677.000000,343.000000 -677.000000,335.000000 -665.000000L28.000000 -196.000000L28.000000 -165.000000M300.000000 -196.000000L56.000000 -196.000000L300.000000 -569.000000"></path>
    </g>
    <g transform="scale(0.009963,0.009963)" id="GLYPHcmr10_54">
      <path style="fill-rule: evenodd;" d="M132.000000 -328.000000L132.000000 -352.000000C132.000000 -605.000000,256.000000 -641.000000,307.000000 -641.000000C331.000000 -641.000000,373.000000 -635.000000,395.000000 -601.000000C380.000000 -601.000000,340.000000 -601.000000,340.000000 -556.000000C340.000000 -525.000000,364.000000 -510.000000,386.000000 -510.000000C402.000000 -510.000000,432.000000 -519.000000,432.000000 -558.000000C432.000000 -618.000000,388.000000 -666.000000,305.000000 -666.000000C177.000000 -666.000000,42.000000 -537.000000,42.000000 -316.000000C42.000000 -49.000000,158.000000 22.000000,251.000000 22.000000C362.000000 22.000000,457.000000 -72.000000,457.000000 -204.000000C457.000000 -331.000000,368.000000 -427.000000,257.000000 -427.000000C189.000000 -427.000000,152.000000 -376.000000,132.000000 -328.000000M251.000000 -6.000000C188.000000 -6.000000,158.000000 -66.000000,152.000000 -81.000000C134.000000 -128.000000,134.000000 -208.000000,134.000000 -226.000000C134.000000 -304.000000,166.000000 -404.000000,256.000000 -404.000000C272.000000 -404.000000,318.000000 -404.000000,349.000000 -342.000000C367.000000 -305.000000,367.000000 -254.000000,367.000000 -205.000000C367.000000 -157.000000,367.000000 -107.000000,350.000000 -71.000000C320.000000 -11.000000,274.000000 -6.000000,251.000000 -6.000000"></path>
    </g>
    <g transform="scale(0.009963,0.009963)" id="GLYPHcmr10_56">
      <path style="fill-rule: evenodd;" d="M163.000000 -457.000000C117.000000 -487.000000,113.000000 -521.000000,113.000000 -538.000000C113.000000 -599.000000,178.000000 -641.000000,249.000000 -641.000000C322.000000 -641.000000,386.000000 -589.000000,386.000000 -517.000000C386.000000 -460.000000,347.000000 -412.000000,287.000000 -377.000000M309.000000 -362.000000C381.000000 -399.000000,430.000000 -451.000000,430.000000 -517.000000C430.000000 -609.000000,341.000000 -666.000000,250.000000 -666.000000C150.000000 -666.000000,69.000000 -592.000000,69.000000 -499.000000C69.000000 -481.000000,71.000000 -436.000000,113.000000 -389.000000C124.000000 -377.000000,161.000000 -352.000000,186.000000 -335.000000C128.000000 -306.000000,42.000000 -250.000000,42.000000 -151.000000C42.000000 -45.000000,144.000000 22.000000,249.000000 22.000000C362.000000 22.000000,457.000000 -61.000000,457.000000 -168.000000C457.000000 -204.000000,446.000000 -249.000000,408.000000 -291.000000C389.000000 -312.000000,373.000000 -322.000000,309.000000 -362.000000M209.000000 -320.000000L332.000000 -242.000000C360.000000 -223.000000,407.000000 -193.000000,407.000000 -132.000000C407.000000 -58.000000,332.000000 -6.000000,250.000000 -6.000000C164.000000 -6.000000,92.000000 -68.000000,92.000000 -151.000000C92.000000 -209.000000,124.000000 -273.000000,209.000000 -320.000000"></path>
    </g>
    <g transform="scale(0.006974,0.006974)" id="GLYPHcmr7_52">
      <path style="fill-rule: evenodd;" d="M529.000000 -164.000000L529.000000 -200.000000L418.000000 -200.000000L418.000000 -646.000000C418.000000 -667.000000,418.000000 -674.000000,396.000000 -674.000000C384.000000 -674.000000,380.000000 -674.000000,370.000000 -660.000000L39.000000 -200.000000L39.000000 -164.000000L333.000000 -164.000000L333.000000 -82.000000C333.000000 -48.000000,333.000000 -36.000000,252.000000 -36.000000L225.000000 -36.000000L225.000000 -0.000000L375.000000 -0.000000L275.000000 -2.000000L339.000000 -4.000000L375.000000 -4.000000L412.000000 -4.000000L476.000000 -2.000000L526.000000 -0.000000L526.000000 -36.000000L499.000000 -36.000000C418.000000 -36.000000,418.000000 -48.000000,418.000000 -82.000000L418.000000 -164.000000M340.000000 -566.000000L340.000000 -200.000000L76.000000 -200.000000"></path>
    </g>
    <g transform="scale(0.006974,0.006974)" id="GLYPHcmr7_53">
      <path style="fill-rule: evenodd;" d="M155.000000 -558.000000C206.000000 -545.000000,236.000000 -545.000000,252.000000 -545.000000C384.000000 -545.000000,462.000000 -635.000000,462.000000 -650.000000C462.000000 -661.000000,455.000000 -664.000000,450.000000 -664.000000C448.000000 -664.000000,446.000000 -664.000000,442.000000 -661.000000C418.000000 -652.000000,365.000000 -632.000000,291.000000 -632.000000C263.000000 -632.000000,210.000000 -634.000000,145.000000 -659.000000C135.000000 -664.000000,133.000000 -664.000000,132.000000 -664.000000C119.000000 -664.000000,119.000000 -653.000000,119.000000 -637.000000L119.000000 -342.000000C119.000000 -325.000000,119.000000 -313.000000,135.000000 -313.000000C144.000000 -313.000000,145.000000 -315.000000,155.000000 -327.000000C198.000000 -382.000000,259.000000 -390.000000,294.000000 -390.000000C354.000000 -390.000000,381.000000 -342.000000,386.000000 -334.000000C404.000000 -301.000000,410.000000 -263.000000,410.000000 -205.000000C410.000000 -175.000000,410.000000 -116.000000,380.000000 -72.000000C355.000000 -36.000000,312.000000 -12.000000,263.000000 -12.000000C198.000000 -12.000000,131.000000 -48.000000,106.000000 -114.000000C144.000000 -111.000000,163.000000 -136.000000,163.000000 -163.000000C163.000000 -206.000000,126.000000 -214.000000,113.000000 -214.000000C111.000000 -214.000000,63.000000 -214.000000,63.000000 -160.000000C63.000000 -70.000000,145.000000 20.000000,265.000000 20.000000C393.000000 20.000000,505.000000 -75.000000,505.000000 -201.000000C505.000000 -314.000000,419.000000 -418.000000,295.000000 -418.000000C251.000000 -418.000000,199.000000 -407.000000,155.000000 -369.000000"></path>
    </g>
    <g transform="scale(0.009963,0.009963)" id="GLYPHpplr8r_40">
      <path style="fill-rule: evenodd;" d="M301.000000 194.000000C229.000000 105.000000,203.000000 57.000000,177.000000 -33.000000C156.000000 -105.000000,146.000000 -181.000000,146.000000 -266.000000C146.000000 -349.000000,156.000000 -420.000000,175.000000 -485.000000C201.000000 -568.000000,228.000000 -615.000000,301.000000 -700.000000L282.000000 -726.000000C178.000000 -633.000000,137.000000 -578.000000,99.000000 -480.000000C73.000000 -413.000000,60.000000 -342.000000,60.000000 -266.000000C60.000000 -159.000000,85.000000 -58.000000,133.000000 32.000000C168.000000 99.000000,200.000000 138.000000,282.000000 215.000000"></path>
    </g>
    <g transform="scale(0.009963,0.009963)" id="GLYPHpplr8r_41">
      <path style="fill-rule: evenodd;" d="M51.000000 215.000000C120.000000 150.000000,149.000000 117.000000,180.000000 68.000000C241.000000 -29.000000,273.000000 -145.000000,273.000000 -265.000000C273.000000 -342.000000,260.000000 -413.000000,234.000000 -480.000000C196.000000 -577.000000,155.000000 -632.000000,51.000000 -726.000000L32.000000 -700.000000C105.000000 -614.000000,132.000000 -567.000000,157.000000 -485.000000C177.000000 -420.000000,187.000000 -349.000000,187.000000 -266.000000C187.000000 -181.000000,177.000000 -105.000000,156.000000 -33.000000C130.000000 57.000000,104.000000 105.000000,32.000000 194.000000"></path>
    </g>
    <g transform="scale(0.009963,0.009963)" id="GLYPHpplr8r_45">
      <path style="fill-rule: evenodd;" d="M282.000000 -215.000000L312.000000 -282.000000L307.000000 -287.000000L44.000000 -287.000000L17.000000 -220.000000L22.000000 -215.000000"></path>
    </g>
    <g transform="scale(0.009963,0.009963)" id="GLYPHpplr8r_69">
      <path style="fill-rule: evenodd;" d="M22.000000 -662.000000L70.000000 -659.000000C116.000000 -656.000000,121.000000 -648.000000,121.000000 -569.000000L121.000000 -120.000000C121.000000 -41.000000,117.000000 -34.000000,70.000000 -30.000000L34.000000 -27.000000L34.000000 3.000000C100.000000 1.000000,129.000000 -0.000000,157.000000 -0.000000C162.000000 -0.000000,190.000000 -0.000000,228.000000 1.000000C367.000000 3.000000,367.000000 3.000000,389.000000 3.000000C420.000000 3.000000,420.000000 3.000000,556.000000 -0.000000C556.000000 -58.000000,562.000000 -112.000000,572.000000 -164.000000L537.000000 -164.000000C535.000000 -148.000000,533.000000 -134.000000,532.000000 -130.000000C526.000000 -87.000000,513.000000 -56.000000,499.000000 -51.000000C478.000000 -44.000000,405.000000 -39.000000,315.000000 -39.000000C263.000000 -39.000000,245.000000 -41.000000,216.000000 -47.000000L216.000000 -327.000000C244.000000 -329.000000,274.000000 -330.000000,319.000000 -330.000000C393.000000 -330.000000,420.000000 -327.000000,438.000000 -318.000000L446.000000 -293.000000L451.000000 -234.000000L481.000000 -234.000000C478.000000 -327.000000,478.000000 -327.000000,478.000000 -345.000000C478.000000 -361.000000,478.000000 -361.000000,481.000000 -461.000000L451.000000 -461.000000L446.000000 -409.000000C445.000000 -400.000000,442.000000 -391.000000,438.000000 -383.000000C420.000000 -375.000000,392.000000 -372.000000,326.000000 -372.000000C284.000000 -372.000000,250.000000 -373.000000,216.000000 -375.000000L216.000000 -642.000000C247.000000 -649.000000,264.000000 -650.000000,333.000000 -650.000000C390.000000 -650.000000,446.000000 -645.000000,478.000000 -636.000000C502.000000 -630.000000,505.000000 -625.000000,505.000000 -602.000000L505.000000 -537.000000L540.000000 -537.000000C540.000000 -597.000000,545.000000 -645.000000,556.000000 -689.000000C507.000000 -691.000000,476.000000 -692.000000,432.000000 -692.000000C407.000000 -692.000000,374.000000 -692.000000,333.000000 -691.000000C270.000000 -690.000000,227.000000 -689.000000,200.000000 -689.000000C166.000000 -689.000000,121.000000 -690.000000,22.000000 -692.000000"></path>
    </g>
    <g transform="scale(0.009963,0.009963)" id="GLYPHpplr8r_72">
      <path style="fill-rule: evenodd;" d="M616.000000 -120.000000C616.000000 -41.000000,611.000000 -33.000000,565.000000 -30.000000L517.000000 -27.000000L517.000000 3.000000C576.000000 1.000000,611.000000 -0.000000,663.000000 -0.000000C715.000000 -0.000000,751.000000 1.000000,810.000000 3.000000L810.000000 -27.000000L762.000000 -30.000000C716.000000 -33.000000,711.000000 -41.000000,711.000000 -120.000000L711.000000 -569.000000C711.000000 -648.000000,716.000000 -656.000000,762.000000 -659.000000L810.000000 -662.000000L810.000000 -692.000000C737.000000 -689.000000,715.000000 -689.000000,663.000000 -689.000000C613.000000 -689.000000,589.000000 -690.000000,517.000000 -692.000000L517.000000 -662.000000L565.000000 -659.000000C611.000000 -656.000000,616.000000 -648.000000,616.000000 -569.000000L616.000000 -391.000000C595.000000 -390.000000,574.000000 -389.000000,533.000000 -389.000000L299.000000 -389.000000C258.000000 -389.000000,236.000000 -390.000000,216.000000 -391.000000L216.000000 -569.000000C216.000000 -648.000000,221.000000 -656.000000,267.000000 -659.000000L315.000000 -662.000000L315.000000 -692.000000C242.000000 -689.000000,220.000000 -689.000000,168.000000 -689.000000C118.000000 -689.000000,94.000000 -690.000000,22.000000 -692.000000L22.000000 -662.000000L70.000000 -659.000000C116.000000 -656.000000,121.000000 -648.000000,121.000000 -569.000000L121.000000 -120.000000C121.000000 -41.000000,116.000000 -33.000000,70.000000 -30.000000L22.000000 -27.000000L22.000000 3.000000C81.000000 1.000000,116.000000 -0.000000,168.000000 -0.000000C220.000000 -0.000000,256.000000 1.000000,315.000000 3.000000L315.000000 -27.000000L267.000000 -30.000000C221.000000 -33.000000,216.000000 -41.000000,216.000000 -120.000000L216.000000 -343.000000C243.000000 -345.000000,259.000000 -345.000000,299.000000 -345.000000L533.000000 -345.000000C573.000000 -345.000000,589.000000 -345.000000,616.000000 -343.000000"></path>
    </g>
    <g transform="scale(0.009963,0.009963)" id="GLYPHpplr8r_77">
      <path style="fill-rule: evenodd;" d="M732.000000 -120.000000C732.000000 -41.000000,728.000000 -34.000000,681.000000 -30.000000L647.000000 -27.000000L647.000000 3.000000C693.000000 1.000000,723.000000 -0.000000,775.000000 -0.000000C831.000000 -0.000000,867.000000 1.000000,926.000000 3.000000L926.000000 -27.000000L878.000000 -30.000000C832.000000 -33.000000,827.000000 -41.000000,827.000000 -120.000000L827.000000 -569.000000C827.000000 -647.000000,832.000000 -656.000000,878.000000 -659.000000L920.000000 -662.000000L920.000000 -692.000000C844.000000 -689.000000,844.000000 -689.000000,827.000000 -689.000000C812.000000 -689.000000,812.000000 -689.000000,732.000000 -692.000000L470.000000 -136.000000L206.000000 -692.000000C126.000000 -689.000000,126.000000 -689.000000,111.000000 -689.000000C96.000000 -689.000000,96.000000 -689.000000,16.000000 -692.000000L16.000000 -662.000000L60.000000 -659.000000C106.000000 -656.000000,111.000000 -647.000000,111.000000 -569.000000L111.000000 -120.000000C111.000000 -42.000000,106.000000 -33.000000,60.000000 -30.000000L16.000000 -27.000000L16.000000 3.000000C115.000000 -0.000000,115.000000 -0.000000,132.000000 -0.000000C147.000000 -0.000000,147.000000 -0.000000,252.000000 3.000000L252.000000 -27.000000L208.000000 -30.000000C162.000000 -33.000000,157.000000 -42.000000,157.000000 -120.000000L157.000000 -578.000000L436.000000 13.000000L456.000000 13.000000C463.000000 -2.000000,469.000000 -18.000000,475.000000 -33.000000C491.000000 -72.000000,503.000000 -100.000000,510.000000 -114.000000L688.000000 -492.000000C702.000000 -521.000000,714.000000 -544.000000,732.000000 -578.000000"></path>
    </g>
    <g transform="scale(0.009963,0.009963)" id="GLYPHpplr8r_79">
      <path style="fill-rule: evenodd;" d="M402.000000 -709.000000C174.000000 -709.000000,22.000000 -561.000000,22.000000 -341.000000C22.000000 -131.000000,168.000000 20.000000,370.000000 20.000000C594.000000 20.000000,764.000000 -147.000000,764.000000 -367.000000C764.000000 -577.000000,624.000000 -709.000000,402.000000 -709.000000M385.000000 -667.000000C556.000000 -667.000000,657.000000 -545.000000,657.000000 -337.000000C657.000000 -139.000000,565.000000 -22.000000,410.000000 -22.000000C242.000000 -22.000000,129.000000 -164.000000,129.000000 -378.000000C129.000000 -563.000000,221.000000 -667.000000,385.000000 -667.000000"></path>
    </g>
    <g transform="scale(0.009963,0.009963)" id="GLYPHpplr8r_83">
      <path style="fill-rule: evenodd;" d="M447.000000 -526.000000C447.000000 -579.000000,451.000000 -613.000000,461.000000 -667.000000C381.000000 -699.000000,336.000000 -709.000000,281.000000 -709.000000C132.000000 -709.000000,24.000000 -615.000000,24.000000 -484.000000C24.000000 -435.000000,37.000000 -399.000000,66.000000 -372.000000C100.000000 -341.000000,146.000000 -325.000000,243.000000 -312.000000C320.000000 -301.000000,355.000000 -290.000000,381.000000 -267.000000C407.000000 -246.000000,419.000000 -217.000000,419.000000 -179.000000C419.000000 -89.000000,344.000000 -24.000000,240.000000 -24.000000C160.000000 -24.000000,82.000000 -63.000000,77.000000 -104.000000L69.000000 -171.000000L37.000000 -171.000000C38.000000 -153.000000,38.000000 -137.000000,38.000000 -131.000000C38.000000 -85.000000,36.000000 -63.000000,30.000000 -18.000000C87.000000 7.000000,145.000000 20.000000,203.000000 20.000000C377.000000 20.000000,503.000000 -85.000000,503.000000 -230.000000C503.000000 -277.000000,490.000000 -310.000000,462.000000 -336.000000C427.000000 -369.000000,385.000000 -382.000000,273.000000 -397.000000C151.000000 -413.000000,108.000000 -446.000000,108.000000 -523.000000C108.000000 -607.000000,171.000000 -667.000000,259.000000 -667.000000C298.000000 -667.000000,335.000000 -659.000000,362.000000 -644.000000C395.000000 -627.000000,406.000000 -612.000000,409.000000 -583.000000L415.000000 -526.000000"></path>
    </g>
    <g transform="scale(0.009963,0.009963)" id="GLYPHpplr8r_97">
      <path style="fill-rule: evenodd;" d="M324.000000 -82.000000L319.000000 3.000000C384.000000 -0.000000,384.000000 -0.000000,397.000000 -0.000000C402.000000 -0.000000,427.000000 1.000000,471.000000 3.000000L471.000000 -27.000000L432.000000 -29.000000C408.000000 -30.000000,404.000000 -38.000000,404.000000 -87.000000L404.000000 -270.000000C404.000000 -416.000000,362.000000 -469.000000,246.000000 -469.000000C203.000000 -469.000000,163.000000 -458.000000,125.000000 -435.000000L72.000000 -403.000000L72.000000 -338.000000L98.000000 -331.000000L111.000000 -362.000000C132.000000 -409.000000,142.000000 -416.000000,188.000000 -416.000000C282.000000 -416.000000,321.000000 -379.000000,324.000000 -288.000000L225.000000 -270.000000C89.000000 -245.000000,32.000000 -198.000000,32.000000 -111.000000C32.000000 -33.000000,79.000000 12.000000,158.000000 12.000000C176.000000 12.000000,193.000000 9.000000,200.000000 4.000000M324.000000 -124.000000C295.000000 -83.000000,232.000000 -45.000000,193.000000 -45.000000C153.000000 -45.000000,118.000000 -82.000000,118.000000 -125.000000C118.000000 -162.000000,138.000000 -197.000000,168.000000 -216.000000C193.000000 -231.000000,248.000000 -245.000000,324.000000 -256.000000"></path>
    </g>
    <g transform="scale(0.009963,0.009963)" id="GLYPHpplr8r_99">
      <path style="fill-rule: evenodd;" d="M399.000000 -311.000000C399.000000 -357.000000,404.000000 -398.000000,413.000000 -434.000000C373.000000 -458.000000,338.000000 -469.000000,297.000000 -469.000000C249.000000 -469.000000,193.000000 -450.000000,133.000000 -412.000000C63.000000 -368.000000,26.000000 -298.000000,26.000000 -210.000000C26.000000 -75.000000,121.000000 20.000000,255.000000 20.000000C307.000000 20.000000,382.000000 1.000000,392.000000 -14.000000L413.000000 -46.000000L403.000000 -61.000000C366.000000 -41.000000,334.000000 -32.000000,298.000000 -32.000000C187.000000 -32.000000,114.000000 -118.000000,114.000000 -250.000000C114.000000 -357.000000,164.000000 -417.000000,254.000000 -417.000000C298.000000 -417.000000,346.000000 -397.000000,364.000000 -372.000000L371.000000 -311.000000"></path>
    </g>
    <g transform="scale(0.009963,0.009963)" id="GLYPHpplr8r_100">
      <path style="fill-rule: evenodd;" d="M412.000000 -437.000000C356.000000 -461.000000,328.000000 -469.000000,293.000000 -469.000000C266.000000 -469.000000,242.000000 -463.000000,217.000000 -450.000000L129.000000 -404.000000C72.000000 -374.000000,35.000000 -301.000000,35.000000 -216.000000C35.000000 -136.000000,62.000000 -70.000000,111.000000 -30.000000C145.000000 -1.000000,192.000000 12.000000,257.000000 12.000000C277.000000 12.000000,300.000000 8.000000,305.000000 4.000000L416.000000 -89.000000L411.000000 3.000000C460.000000 1.000000,476.000000 -0.000000,488.000000 -0.000000C496.000000 -0.000000,510.000000 -0.000000,531.000000 1.000000C538.000000 2.000000,558.000000 2.000000,579.000000 3.000000L579.000000 -27.000000L533.000000 -30.000000C499.000000 -32.000000,496.000000 -39.000000,496.000000 -102.000000L496.000000 -718.000000L487.000000 -726.000000C443.000000 -709.000000,410.000000 -701.000000,331.000000 -689.000000L331.000000 -661.000000L387.000000 -661.000000C405.000000 -661.000000,412.000000 -650.000000,412.000000 -620.000000M412.000000 -221.000000C412.000000 -156.000000,410.000000 -146.000000,397.000000 -123.000000C369.000000 -76.000000,320.000000 -45.000000,273.000000 -45.000000C185.000000 -45.000000,122.000000 -130.000000,122.000000 -249.000000C122.000000 -358.000000,176.000000 -422.000000,266.000000 -422.000000C304.000000 -422.000000,344.000000 -409.000000,379.000000 -385.000000C400.000000 -371.000000,412.000000 -358.000000,412.000000 -350.000000"></path>
    </g>
    <g transform="scale(0.009963,0.009963)" id="GLYPHpplr8r_101">
      <path style="fill-rule: evenodd;" d="M437.000000 -70.000000L424.000000 -80.000000C360.000000 -42.000000,337.000000 -33.000000,294.000000 -33.000000C229.000000 -33.000000,175.000000 -62.000000,147.000000 -111.000000C128.000000 -144.000000,121.000000 -172.000000,119.000000 -230.000000L265.000000 -230.000000C334.000000 -230.000000,377.000000 -233.000000,446.000000 -244.000000C447.000000 -258.000000,448.000000 -267.000000,448.000000 -279.000000C448.000000 -394.000000,374.000000 -469.000000,262.000000 -469.000000C225.000000 -469.000000,182.000000 -456.000000,141.000000 -432.000000C59.000000 -385.000000,26.000000 -323.000000,26.000000 -219.000000C26.000000 -156.000000,41.000000 -102.000000,68.000000 -64.000000C108.000000 -11.000000,175.000000 20.000000,250.000000 20.000000C287.000000 20.000000,324.000000 12.000000,365.000000 -6.000000C392.000000 -17.000000,413.000000 -30.000000,417.000000 -36.000000M359.000000 -267.000000C307.000000 -265.000000,283.000000 -264.000000,247.000000 -264.000000C201.000000 -264.000000,175.000000 -265.000000,121.000000 -270.000000C121.000000 -317.000000,125.000000 -339.000000,138.000000 -365.000000C159.000000 -409.000000,202.000000 -436.000000,250.000000 -436.000000C283.000000 -436.000000,309.000000 -423.000000,327.000000 -396.000000C349.000000 -363.000000,356.000000 -334.000000,359.000000 -267.000000"></path>
    </g>
    <g transform="scale(0.009963,0.009963)" id="GLYPHpplr8r_102">
      <path style="fill-rule: evenodd;" d="M341.000000 -717.000000C320.000000 -725.000000,308.000000 -728.000000,295.000000 -728.000000C263.000000 -728.000000,228.000000 -711.000000,206.000000 -686.000000L148.000000 -620.000000C119.000000 -587.000000,106.000000 -542.000000,106.000000 -476.000000L106.000000 -434.000000L37.000000 -403.000000L37.000000 -381.000000L106.000000 -385.000000L106.000000 -102.000000C106.000000 -39.000000,103.000000 -32.000000,69.000000 -30.000000L23.000000 -27.000000L23.000000 3.000000C123.000000 -0.000000,123.000000 -0.000000,148.000000 -0.000000C173.000000 -0.000000,173.000000 -0.000000,273.000000 3.000000L273.000000 -27.000000L227.000000 -30.000000C193.000000 -32.000000,190.000000 -39.000000,190.000000 -102.000000L190.000000 -385.000000L314.000000 -385.000000L321.000000 -438.000000L190.000000 -434.000000L190.000000 -519.000000C190.000000 -634.000000,203.000000 -662.000000,260.000000 -662.000000C287.000000 -662.000000,305.000000 -655.000000,329.000000 -634.000000L341.000000 -640.000000"></path>
    </g>
    <g transform="scale(0.009963,0.009963)" id="GLYPHpplr8r_103">
      <path style="fill-rule: evenodd;" d="M519.000000 -378.000000L544.000000 -419.000000L540.000000 -431.000000L398.000000 -427.000000C361.000000 -457.000000,325.000000 -469.000000,276.000000 -469.000000C232.000000 -469.000000,181.000000 -455.000000,140.000000 -431.000000C84.000000 -399.000000,55.000000 -350.000000,55.000000 -289.000000C55.000000 -215.000000,101.000000 -164.000000,175.000000 -156.000000L96.000000 -95.000000C86.000000 -80.000000,81.000000 -67.000000,81.000000 -52.000000C81.000000 -24.000000,99.000000 -8.000000,147.000000 6.000000L60.000000 53.000000C46.000000 61.000000,32.000000 98.000000,32.000000 129.000000C32.000000 220.000000,121.000000 283.000000,248.000000 283.000000C399.000000 283.000000,518.000000 188.000000,518.000000 66.000000C518.000000 -6.000000,470.000000 -56.000000,400.000000 -56.000000L240.000000 -56.000000C188.000000 -56.000000,164.000000 -68.000000,164.000000 -95.000000C164.000000 -108.000000,172.000000 -119.000000,198.000000 -141.000000C204.000000 -146.000000,206.000000 -148.000000,210.000000 -152.000000C220.000000 -151.000000,226.000000 -150.000000,234.000000 -150.000000C277.000000 -150.000000,330.000000 -169.000000,371.000000 -198.000000C416.000000 -231.000000,438.000000 -271.000000,438.000000 -324.000000C438.000000 -344.000000,435.000000 -357.000000,427.000000 -378.000000M240.000000 -435.000000C308.000000 -435.000000,354.000000 -379.000000,354.000000 -294.000000C354.000000 -229.000000,312.000000 -184.000000,251.000000 -184.000000C184.000000 -184.000000,139.000000 -236.000000,139.000000 -313.000000C139.000000 -390.000000,176.000000 -435.000000,240.000000 -435.000000M287.000000 14.000000C400.000000 14.000000,439.000000 37.000000,439.000000 102.000000C439.000000 188.000000,360.000000 252.000000,255.000000 252.000000C168.000000 252.000000,108.000000 201.000000,108.000000 127.000000C108.000000 82.000000,134.000000 41.000000,174.000000 24.000000C190.000000 16.000000,218.000000 14.000000,287.000000 14.000000"></path>
    </g>
    <g transform="scale(0.009963,0.009963)" id="GLYPHpplr8r_104">
      <path style="fill-rule: evenodd;" d="M7.000000 -661.000000L63.000000 -661.000000C81.000000 -661.000000,88.000000 -650.000000,88.000000 -620.000000L88.000000 -102.000000C88.000000 -39.000000,85.000000 -32.000000,51.000000 -30.000000L6.000000 -27.000000L6.000000 3.000000C74.000000 1.000000,101.000000 -0.000000,130.000000 -0.000000C159.000000 -0.000000,186.000000 1.000000,254.000000 3.000000L254.000000 -27.000000L209.000000 -30.000000C175.000000 -32.000000,172.000000 -39.000000,172.000000 -102.000000L172.000000 -314.000000C172.000000 -359.000000,238.000000 -408.000000,299.000000 -408.000000C366.000000 -408.000000,410.000000 -358.000000,410.000000 -281.000000L410.000000 3.000000C471.000000 -0.000000,472.000000 -0.000000,489.000000 -0.000000C503.000000 -0.000000,503.000000 -0.000000,572.000000 3.000000L572.000000 -27.000000L531.000000 -30.000000C497.000000 -32.000000,494.000000 -38.000000,494.000000 -102.000000L494.000000 -295.000000C494.000000 -412.000000,439.000000 -469.000000,327.000000 -469.000000C290.000000 -469.000000,269.000000 -462.000000,248.000000 -444.000000L172.000000 -378.000000L172.000000 -718.000000L163.000000 -726.000000C119.000000 -709.000000,86.000000 -701.000000,7.000000 -689.000000"></path>
    </g>
    <g transform="scale(0.009963,0.009963)" id="GLYPHpplr8r_105">
      <path style="fill-rule: evenodd;" d="M188.000000 -465.000000L179.000000 -469.000000C128.000000 -448.000000,76.000000 -434.000000,23.000000 -428.000000L23.000000 -400.000000L60.000000 -400.000000C100.000000 -400.000000,104.000000 -393.000000,104.000000 -327.000000L104.000000 -102.000000C104.000000 -39.000000,101.000000 -32.000000,67.000000 -30.000000L21.000000 -27.000000L21.000000 3.000000C121.000000 -0.000000,121.000000 -0.000000,146.000000 -0.000000C171.000000 -0.000000,171.000000 -0.000000,271.000000 3.000000L271.000000 -27.000000L225.000000 -30.000000C191.000000 -32.000000,188.000000 -39.000000,188.000000 -102.000000M142.000000 -687.000000C112.000000 -687.000000,86.000000 -661.000000,86.000000 -631.000000C86.000000 -602.000000,112.000000 -576.000000,141.000000 -576.000000C170.000000 -576.000000,197.000000 -602.000000,197.000000 -631.000000C197.000000 -659.000000,170.000000 -687.000000,142.000000 -687.000000"></path>
    </g>
    <g transform="scale(0.009963,0.009963)" id="GLYPHpplr8r_109">
      <path style="fill-rule: evenodd;" d="M18.000000 -400.000000L55.000000 -400.000000C95.000000 -400.000000,99.000000 -393.000000,99.000000 -327.000000L99.000000 -102.000000C99.000000 -39.000000,96.000000 -32.000000,62.000000 -30.000000L16.000000 -27.000000L16.000000 3.000000C112.000000 -0.000000,115.000000 -0.000000,143.000000 -0.000000C171.000000 -0.000000,197.000000 1.000000,262.000000 3.000000L262.000000 -27.000000L220.000000 -30.000000C186.000000 -32.000000,183.000000 -39.000000,183.000000 -102.000000L183.000000 -314.000000C183.000000 -359.000000,249.000000 -408.000000,309.000000 -408.000000C363.000000 -408.000000,400.000000 -357.000000,400.000000 -281.000000L400.000000 -102.000000C400.000000 -39.000000,397.000000 -32.000000,363.000000 -30.000000L317.000000 -27.000000L317.000000 3.000000C417.000000 -0.000000,417.000000 -0.000000,442.000000 -0.000000C467.000000 -0.000000,467.000000 -0.000000,567.000000 3.000000L567.000000 -27.000000L521.000000 -30.000000C487.000000 -32.000000,484.000000 -39.000000,484.000000 -102.000000L484.000000 -314.000000C484.000000 -359.000000,550.000000 -408.000000,610.000000 -408.000000C664.000000 -408.000000,701.000000 -357.000000,701.000000 -281.000000L701.000000 3.000000C762.000000 -0.000000,763.000000 -0.000000,780.000000 -0.000000C793.000000 -0.000000,793.000000 -0.000000,869.000000 3.000000L869.000000 -27.000000L822.000000 -30.000000C788.000000 -32.000000,785.000000 -39.000000,785.000000 -102.000000L785.000000 -308.000000C785.000000 -407.000000,727.000000 -469.000000,635.000000 -469.000000C600.000000 -469.000000,571.000000 -460.000000,553.000000 -444.000000L477.000000 -376.000000C445.000000 -442.000000,404.000000 -469.000000,335.000000 -469.000000C298.000000 -469.000000,270.000000 -460.000000,252.000000 -444.000000L183.000000 -380.000000L183.000000 -465.000000L174.000000 -469.000000C123.000000 -448.000000,71.000000 -434.000000,18.000000 -428.000000"></path>
    </g>
    <g transform="scale(0.009963,0.009963)" id="GLYPHpplr8r_110">
      <path style="fill-rule: evenodd;" d="M410.000000 3.000000C471.000000 -0.000000,472.000000 -0.000000,489.000000 -0.000000C503.000000 -0.000000,503.000000 -0.000000,572.000000 3.000000L572.000000 -27.000000L531.000000 -30.000000C497.000000 -32.000000,494.000000 -38.000000,494.000000 -102.000000L494.000000 -295.000000C494.000000 -412.000000,439.000000 -469.000000,327.000000 -469.000000C290.000000 -469.000000,269.000000 -462.000000,248.000000 -444.000000L172.000000 -378.000000L172.000000 -465.000000L163.000000 -469.000000C112.000000 -448.000000,60.000000 -434.000000,7.000000 -428.000000L7.000000 -400.000000L44.000000 -400.000000C84.000000 -400.000000,88.000000 -393.000000,88.000000 -327.000000L88.000000 -102.000000C88.000000 -39.000000,85.000000 -32.000000,51.000000 -30.000000L6.000000 -27.000000L6.000000 3.000000C74.000000 1.000000,101.000000 -0.000000,130.000000 -0.000000C159.000000 -0.000000,186.000000 1.000000,254.000000 3.000000L254.000000 -27.000000L209.000000 -30.000000C175.000000 -32.000000,172.000000 -39.000000,172.000000 -102.000000L172.000000 -314.000000C172.000000 -359.000000,238.000000 -408.000000,299.000000 -408.000000C366.000000 -408.000000,410.000000 -358.000000,410.000000 -281.000000"></path>
    </g>
    <g transform="scale(0.009963,0.009963)" id="GLYPHpplr8r_111">
      <path style="fill-rule: evenodd;" d="M279.000000 -469.000000C133.000000 -469.000000,32.000000 -366.000000,32.000000 -217.000000C32.000000 -76.000000,121.000000 20.000000,250.000000 20.000000C404.000000 20.000000,514.000000 -87.000000,514.000000 -237.000000C514.000000 -372.000000,416.000000 -469.000000,279.000000 -469.000000M261.000000 -436.000000C353.000000 -436.000000,421.000000 -336.000000,421.000000 -200.000000C421.000000 -85.000000,370.000000 -13.000000,289.000000 -13.000000C191.000000 -13.000000,125.000000 -109.000000,125.000000 -251.000000C125.000000 -371.000000,173.000000 -436.000000,261.000000 -436.000000"></path>
    </g>
    <g transform="scale(0.009963,0.009963)" id="GLYPHpplr8r_114">
      <path style="fill-rule: evenodd;" d="M23.000000 -400.000000L60.000000 -400.000000C100.000000 -400.000000,104.000000 -393.000000,104.000000 -327.000000L104.000000 -102.000000C104.000000 -39.000000,101.000000 -32.000000,67.000000 -30.000000L21.000000 -27.000000L21.000000 3.000000C93.000000 1.000000,119.000000 -0.000000,144.000000 -0.000000C164.000000 -0.000000,164.000000 -0.000000,287.000000 3.000000L287.000000 -27.000000L235.000000 -30.000000C190.000000 -33.000000,188.000000 -36.000000,188.000000 -102.000000L188.000000 -274.000000C188.000000 -334.000000,228.000000 -384.000000,277.000000 -384.000000C307.000000 -384.000000,328.000000 -370.000000,344.000000 -338.000000L365.000000 -338.000000L374.000000 -458.000000C363.000000 -465.000000,345.000000 -469.000000,327.000000 -469.000000C297.000000 -469.000000,265.000000 -453.000000,244.000000 -428.000000L188.000000 -362.000000L188.000000 -465.000000L179.000000 -469.000000C128.000000 -448.000000,76.000000 -434.000000,23.000000 -428.000000"></path>
    </g>
    <g transform="scale(0.009963,0.009963)" id="GLYPHpplr8r_115">
      <path style="fill-rule: evenodd;" d="M41.000000 -143.000000C41.000000 -74.000000,38.000000 -44.000000,30.000000 -4.000000C82.000000 13.000000,121.000000 20.000000,167.000000 20.000000C298.000000 20.000000,391.000000 -50.000000,391.000000 -148.000000C391.000000 -179.000000,382.000000 -202.000000,363.000000 -222.000000C337.000000 -247.000000,304.000000 -259.000000,216.000000 -276.000000C134.000000 -292.000000,107.000000 -312.000000,107.000000 -358.000000C107.000000 -408.000000,142.000000 -436.000000,203.000000 -436.000000C270.000000 -436.000000,321.000000 -401.000000,321.000000 -354.000000L321.000000 -331.000000L349.000000 -331.000000C350.000000 -389.000000,351.000000 -413.000000,354.000000 -444.000000C301.000000 -462.000000,265.000000 -469.000000,224.000000 -469.000000C108.000000 -469.000000,37.000000 -414.000000,37.000000 -324.000000C37.000000 -276.000000,59.000000 -242.000000,105.000000 -221.000000C132.000000 -209.000000,185.000000 -193.000000,253.000000 -178.000000C298.000000 -168.000000,317.000000 -147.000000,317.000000 -109.000000C317.000000 -55.000000,267.000000 -17.000000,196.000000 -17.000000C123.000000 -17.000000,71.000000 -52.000000,71.000000 -102.000000L71.000000 -143.000000"></path>
    </g>
    <g transform="scale(0.009963,0.009963)" id="GLYPHpplr8r_116">
      <path style="fill-rule: evenodd;" d="M98.000000 -382.000000L98.000000 -94.000000C98.000000 -20.000000,131.000000 12.000000,208.000000 12.000000C231.000000 12.000000,255.000000 7.000000,261.000000 -0.000000L309.000000 -53.000000L296.000000 -70.000000C271.000000 -56.000000,256.000000 -51.000000,237.000000 -51.000000C198.000000 -51.000000,182.000000 -71.000000,182.000000 -120.000000L182.000000 -382.000000L310.000000 -382.000000L319.000000 -436.000000L182.000000 -430.000000L182.000000 -468.000000C182.000000 -510.000000,185.000000 -546.000000,193.000000 -610.000000L181.000000 -621.000000C157.000000 -606.000000,127.000000 -593.000000,96.000000 -583.000000C99.000000 -553.000000,100.000000 -534.000000,100.000000 -504.000000L100.000000 -434.000000L22.000000 -399.000000L22.000000 -378.000000"></path>
    </g>
    <g transform="scale(0.009963,0.009963)" id="GLYPHpplr8r_117">
      <path style="fill-rule: evenodd;" d="M503.000000 -465.000000L494.000000 -469.000000C443.000000 -448.000000,391.000000 -434.000000,338.000000 -428.000000L338.000000 -400.000000L375.000000 -400.000000C415.000000 -400.000000,419.000000 -393.000000,419.000000 -327.000000L419.000000 -164.000000C419.000000 -142.000000,405.000000 -114.000000,382.000000 -91.000000C354.000000 -63.000000,322.000000 -49.000000,283.000000 -49.000000C248.000000 -49.000000,220.000000 -60.000000,204.000000 -79.000000C190.000000 -95.000000,183.000000 -126.000000,183.000000 -170.000000L183.000000 -465.000000L174.000000 -469.000000C123.000000 -448.000000,71.000000 -434.000000,18.000000 -428.000000L18.000000 -400.000000L55.000000 -400.000000C95.000000 -400.000000,99.000000 -393.000000,99.000000 -327.000000L99.000000 -159.000000C99.000000 -89.000000,105.000000 -58.000000,123.000000 -33.000000C145.000000 -3.000000,183.000000 12.000000,240.000000 12.000000C285.000000 12.000000,325.000000 -2.000000,352.000000 -27.000000L419.000000 -89.000000C419.000000 -60.000000,418.000000 -44.000000,415.000000 3.000000C482.000000 -0.000000,483.000000 -0.000000,498.000000 -0.000000C512.000000 -0.000000,512.000000 -0.000000,581.000000 3.000000L581.000000 -27.000000L540.000000 -30.000000C506.000000 -32.000000,503.000000 -38.000000,503.000000 -102.000000"></path>
    </g>
    <g transform="scale(0.009963,0.009963)" id="GLYPHpplr8r_120">
      <path style="fill-rule: evenodd;" d="M288.000000 -254.000000L430.000000 -420.000000C436.000000 -427.000000,447.000000 -431.000000,464.000000 -431.000000L478.000000 -431.000000L478.000000 -459.000000L396.000000 -459.000000L272.000000 -284.000000L196.000000 -400.000000C181.000000 -422.000000,170.000000 -435.000000,136.000000 -469.000000L20.000000 -449.000000L25.000000 -423.000000L46.000000 -421.000000C64.000000 -420.000000,86.000000 -406.000000,96.000000 -392.000000L216.000000 -218.000000L67.000000 -42.000000C60.000000 -33.000000,47.000000 -27.000000,37.000000 -27.000000L20.000000 -27.000000L20.000000 -0.000000L106.000000 -0.000000C113.000000 -11.000000,115.000000 -15.000000,127.000000 -33.000000C143.000000 -61.000000,159.000000 -86.000000,166.000000 -94.000000L240.000000 -192.000000L347.000000 -30.000000L348.000000 -28.000000C357.000000 -14.000000,365.000000 -4.000000,373.000000 3.000000C425.000000 -0.000000,425.000000 -0.000000,434.000000 -0.000000C444.000000 -0.000000,444.000000 -0.000000,496.000000 3.000000L496.000000 -27.000000L471.000000 -30.000000C459.000000 -31.000000,447.000000 -39.000000,436.000000 -54.000000"></path>
    </g>
    <g transform="scale(0.009963,0.009963)" id="GLYPHpplr8r_121">
      <path style="fill-rule: evenodd;" d="M297.000000 -86.000000C275.000000 -124.000000,264.000000 -147.000000,246.000000 -196.000000L182.000000 -364.000000C176.000000 -381.000000,172.000000 -396.000000,172.000000 -406.000000C172.000000 -420.000000,183.000000 -428.000000,206.000000 -429.000000L244.000000 -431.000000L244.000000 -459.000000C147.000000 -456.000000,147.000000 -456.000000,128.000000 -456.000000C109.000000 -456.000000,109.000000 -456.000000,12.000000 -459.000000L12.000000 -431.000000L30.000000 -429.000000C55.000000 -426.000000,67.000000 -415.000000,82.000000 -380.000000L191.000000 -118.000000C219.000000 -50.000000,229.000000 -26.000000,247.000000 24.000000L224.000000 85.000000C192.000000 169.000000,153.000000 216.000000,115.000000 216.000000C99.000000 216.000000,81.000000 208.000000,64.000000 193.000000L51.000000 193.000000L27.000000 268.000000C46.000000 278.000000,62.000000 283.000000,81.000000 283.000000C148.000000 283.000000,191.000000 247.000000,229.000000 160.000000L432.000000 -308.000000C472.000000 -399.000000,491.000000 -426.000000,516.000000 -429.000000L544.000000 -431.000000L544.000000 -459.000000C465.000000 -456.000000,465.000000 -456.000000,449.000000 -456.000000C433.000000 -456.000000,433.000000 -456.000000,354.000000 -459.000000L354.000000 -431.000000L380.000000 -429.000000C408.000000 -427.000000,422.000000 -418.000000,422.000000 -404.000000C422.000000 -397.000000,420.000000 -388.000000,416.000000 -378.000000"></path>
    </g>
    <g transform="scale(0.009963,0.009963)" id="GLYPHpplr8r_122">
      <path style="fill-rule: evenodd;" d="M455.000000 -432.000000L455.000000 -462.000000C385.000000 -460.000000,355.000000 -459.000000,317.000000 -459.000000L69.000000 -462.000000C67.000000 -411.000000,66.000000 -399.000000,60.000000 -330.000000L90.000000 -330.000000L102.000000 -398.000000C106.000000 -419.000000,124.000000 -424.000000,198.000000 -424.000000L341.000000 -424.000000C320.000000 -391.000000,303.000000 -368.000000,276.000000 -334.000000L106.000000 -122.000000C82.000000 -93.000000,68.000000 -76.000000,16.000000 -17.000000L22.000000 3.000000C126.000000 -0.000000,132.000000 -0.000000,175.000000 -0.000000L451.000000 3.000000C451.000000 -20.000000,453.000000 -44.000000,460.000000 -92.000000L466.000000 -139.000000L436.000000 -139.000000L418.000000 -60.000000C414.000000 -42.000000,372.000000 -35.000000,276.000000 -35.000000L141.000000 -35.000000"></path>
    </g>
  </defs>
  <g>
    <defs>
      <clipPath id="CLIP1">
        <path d="M107.000000 172.000000L362.117645 172.000000L362.117645 1.921570L107.000000 1.921570Z" style="fill: black; stroke: none;"></path>
      </clipPath>
    </defs>
    <g clip-path="url(#CLIP1);">
      <path d="M122.666550 161.529770C123.039536 161.477875,123.412506 161.434616,123.785477 161.385605C124.158447 161.336578,124.531418 161.284668,124.904404 161.235657C125.277374 161.186630,125.650345 161.143372,126.023315 161.094360C126.396286 160.970367,126.769272 160.849258,127.142242 160.728149C127.515213 160.765625,127.888184 160.794464,128.261169 160.829071C128.634140 160.644516,129.007111 160.465744,129.380081 160.278305C129.753052 160.021667,130.126038 159.759262,130.499008 159.502625C130.871979 159.508392,131.244949 159.508392,131.617920 159.514160C131.990891 159.194092,132.363876 158.879776,132.736847 158.559708C133.109818 158.536636,133.482788 158.507797,133.855759 158.487610C134.228745 156.774780,134.601715 155.067703,134.974686 153.354874C135.347656 155.076355,135.720627 156.803619,136.093613 158.522217C136.466583 155.604050,136.839554 152.691650,137.212524 149.773483C137.585510 152.484039,137.958481 155.188812,138.331451 157.902252C138.704422 157.809982,139.077393 157.709045,139.450378 157.616776C139.823349 154.975433,140.196320 152.328323,140.569290 149.686981C140.942261 151.950577,141.315247 154.211288,141.688217 156.474884C142.061188 156.030823,142.434158 155.589630,142.807144 155.148453L143.926056 152.362930C144.299026 152.763733,144.672012 153.155899,145.044983 153.553833C145.417953 154.274719,145.790924 155.004272,146.163910 155.725159C146.536880 153.011719,146.909851 150.301178,147.282822 147.587738C147.655792 149.842682,148.028763 152.106293,148.401749 154.361237C148.774719 154.127670,149.147690 153.882568,149.520660 153.648987C149.893631 150.756775,150.266617 147.867447,150.639587 144.975235C151.012558 147.380127,151.385529 149.779251,151.758499 152.184143L152.877426 147.772293C153.250397 145.932571,153.623367 144.084213,153.996353 142.241608C154.369324 144.819519,154.742294 147.403198,155.115265 149.978210C155.488251 147.907822,155.861221 145.846069,156.234192 143.775665C156.607162 145.851837,156.980133 147.922226,157.353119 150.001282C157.726089 148.686371,158.099060 147.380127,158.472031 146.068100L159.590958 139.580078C159.963928 143.141281,160.336899 146.696716,160.709885 150.257919C161.082855 147.809769,161.455826 145.352982,161.828796 142.904831C162.201767 140.228882,162.574753 137.558701,162.947723 134.882751C163.320694 135.496948,163.693665 136.102493,164.066650 136.716705C164.439621 134.790482,164.812592 132.861374,165.185562 130.935150C165.558533 132.028030,165.931503 133.112244,166.304474 134.205109C166.677460 133.389069,167.050430 132.570129,167.423401 131.756973C167.796371 133.547668,168.169357 135.338348,168.542328 137.131927C168.915298 135.995804,169.288269 134.868332,169.661240 133.732208C170.034225 137.088684,170.407196 140.442261,170.780167 143.798737C171.153137 139.222519,171.526108 134.654953,171.899094 130.078735C172.272064 134.845261,172.645035 139.620453,173.018005 144.389862C173.390991 140.329803,173.763962 136.266861,174.136932 132.203918L175.255859 134.902939C175.628830 133.019974,176.001801 131.128357,176.374771 129.242493L177.493698 142.478058C177.866669 137.772079,178.239639 133.063217,178.612610 128.357239C178.985596 127.443161,179.358566 126.537720,179.731537 125.623627C180.104507 127.195175,180.477493 128.763824,180.850449 130.335373C181.223434 127.172104,181.596405 124.003067,181.969376 120.842682C182.342346 127.273026,182.715317 133.703369,183.088303 140.136612L184.207214 128.337067C184.580200 132.261597,184.953171 136.194778,185.326141 140.122192C185.699112 133.440964,186.072098 126.751099,186.445068 120.069885C186.818039 122.575699,187.191010 125.087280,187.563980 127.593094C187.936951 127.887222,188.309937 128.178467,188.682907 128.472595L189.801834 126.266663C190.174805 125.589020,190.547775 124.902740,190.920746 124.225098C191.293732 122.105682,191.666702 119.986252,192.039673 117.863953C192.412643 117.036362,192.785614 116.203018,193.158600 115.372559C193.531570 122.120087,193.904541 128.856094,194.277512 135.603638C194.650497 133.169922,195.023468 130.727539,195.396439 128.293808C195.769409 130.698700,196.142380 133.103592,196.515350 135.511368C196.888336 131.128357,197.261307 126.736679,197.634277 122.353668C198.007248 119.634460,198.380234 116.909485,198.753204 114.187408C199.126175 114.960205,199.499146 115.724350,199.872116 116.494263L200.991043 117.264175C201.364014 116.808563,201.736984 116.352966,202.109955 115.894470C202.482941 116.416397,202.855911 116.938324,203.228882 117.457367C203.601852 117.592896,203.974823 117.722656,204.347809 117.858185C204.720779 119.020264,205.093750 120.176575,205.466736 121.341537C205.839706 125.923523,206.212677 130.514145,206.585648 135.096130C206.958618 132.627808,207.331589 130.156586,207.704575 127.688263C208.077545 122.967865,208.450516 118.250351,208.823486 113.532837C209.196457 118.530060,209.569443 123.533035,209.942413 128.530258L211.061340 119.620041L212.180252 111.912277C212.553223 112.362106,212.926208 112.803299,213.299179 113.253128C213.672150 105.715500,214.045120 98.186508,214.418091 90.645981L215.537018 108.293396C215.909988 109.585236,216.282959 110.868423,216.655930 112.160263C217.028915 106.087479,217.401886 100.020447,217.774872 93.944778C218.147827 98.797821,218.520813 103.653748,218.893784 108.506790C219.266754 112.895569,219.639725 117.278595,220.012695 121.670258C220.385666 120.978195,220.758652 120.277496,221.131622 119.585434C221.504593 109.784210,221.877579 99.982971,222.250549 90.184616C222.623520 100.582748,222.996490 110.983765,223.369461 121.384781C223.742432 120.626404,224.115417 119.870911,224.488388 119.115417L225.607315 90.161545C225.980286 88.477539,226.353256 86.784897,226.726227 85.100891C227.099197 95.395218,227.472183 105.695312,227.845154 115.986755C228.218124 115.502319,228.591095 115.023636,228.964081 114.539200C229.337051 108.812439,229.710022 103.082794,230.082993 97.356033C230.455963 98.578674,230.828949 99.798416,231.201920 101.018173C231.574890 100.248260,231.947861 99.484116,232.320831 98.714203C232.693802 99.861862,233.066772 101.012405,233.439758 102.160065C233.812729 99.305328,234.185699 96.444839,234.558670 93.587219L235.677597 101.641022C236.050568 102.038956,236.423538 102.445526,236.796524 102.846344L237.915436 102.309998C238.288406 102.875183,238.661377 103.446121,239.034363 104.008423C239.407333 103.795044,239.780304 103.572998,240.153290 103.359619C240.526260 102.716583,240.899231 102.082199,241.272202 101.439163C241.645172 102.125458,242.018158 102.803085,242.391129 103.489380C242.764099 103.030899,243.137070 102.566635,243.510040 102.111038C243.883026 100.476059,244.255997 98.849731,244.628967 97.214737C245.001938 87.177048,245.374924 77.148010,245.747894 67.113205C246.120865 66.899826,246.493835 66.692215,246.866806 66.478821C247.239777 74.671036,247.612762 82.860352,247.985733 91.055450C248.358704 88.892776,248.731674 86.735870,249.104645 84.573196C249.477631 79.082886,249.850601 73.601227,250.223572 68.113800C250.596542 75.885010,250.969513 83.653336,251.342484 91.424545C251.715469 87.286636,252.088440 83.145828,252.461411 79.005035C252.834381 72.289215,253.207367 65.564743,253.580338 58.846024C253.953308 59.416977,254.326294 59.987915,254.699265 60.561752C255.072235 60.659790,255.445206 60.752060,255.818176 60.852997C256.191147 62.459137,256.564117 64.056625,256.937103 65.662781C257.310074 63.280945,257.683044 60.896240,258.056030 58.511536C258.429001 59.702454,258.801971 60.887589,259.174942 62.081390C259.547913 62.101578,259.920898 62.115997,260.293869 62.139053L261.412781 64.941879L262.531708 44.621399C262.904678 51.787064,263.277664 58.961365,263.650635 66.127029C264.023605 68.162827,264.396576 70.204391,264.769547 72.237305L265.888458 78.984848C266.261444 80.654434,266.634415 82.318253,267.007401 83.987839C267.380371 74.330780,267.753342 64.670837,268.126312 55.013779L269.245239 80.282455C269.618210 80.020050,269.991180 79.746109,270.364151 79.483704C270.737122 79.711502,271.110092 79.947952,271.483063 80.175766C271.856049 68.889481,272.229019 57.597443,272.602005 46.314056C272.974976 62.816696,273.347946 79.310684,273.720917 95.816208C274.093903 95.438461,274.466873 95.057831,274.839844 94.680084C275.212814 80.446808,275.585785 66.207764,275.958755 51.974487L277.077682 53.064484C277.450653 67.563049,277.823624 82.067383,278.196609 96.565948C278.569580 95.478836,278.942551 94.394623,279.315536 93.310394C279.688507 77.655518,280.061462 62.009293,280.434433 46.354431C280.807419 46.706223,281.180389 47.055130,281.553375 47.404037C281.926346 44.350342,282.299316 41.288010,282.672287 38.231430C283.045258 37.005905,283.418228 35.783279,283.791199 34.557755C284.164185 38.245834,284.537155 41.936798,284.910126 45.627762C285.283096 43.828430,285.656082 42.029083,286.029053 40.232620C286.402023 42.000244,286.774994 43.770752,287.147964 45.541260C287.520935 44.800186,287.893906 44.064880,288.266891 43.320923C288.639862 44.993378,289.012848 46.662964,289.385818 48.332550C289.758789 48.375809,290.131760 48.410400,290.504745 48.453659C290.877716 49.324493,291.250687 50.203979,291.623657 51.074829C291.996628 53.445114,292.369598 55.821167,292.742584 58.191467C293.115555 61.873779,293.488525 65.550323,293.861496 69.232635C294.234467 70.452377,294.607437 71.666351,294.980408 72.888992C295.353394 73.465698,295.726364 74.051071,296.099350 74.630661C296.472321 59.662079,296.845291 44.684845,297.218262 29.716263C297.591248 43.756332,297.964218 57.790649,298.337189 71.830719C298.710159 71.360703,299.083145 70.896454,299.456116 70.426422C299.829086 53.935318,300.202057 37.447098,300.575027 20.958862C300.947998 24.534485,301.320969 28.118759,301.693939 31.694382C302.066925 42.773041,302.439896 53.857468,302.812866 64.936111C303.185852 52.594467,303.558823 40.244156,303.931793 27.902496C304.304764 28.882904,304.677734 29.860428,305.050705 30.837967C305.423676 41.400467,305.796661 51.974487,306.169632 62.536987C306.542603 50.558670,306.915588 38.574570,307.288559 26.596237C307.661530 26.284821,308.034500 25.976273,308.407471 25.661957C308.780441 36.677185,309.153412 47.689514,309.526382 58.704727C309.899368 45.734467,310.272339 32.758423,310.645325 19.788147C311.018295 26.460709,311.391266 33.141937,311.764236 39.817383C312.137222 44.520477,312.510193 49.217804,312.883179 53.920898C313.256149 59.696686,313.629120 65.472458,314.002090 71.245361C314.375061 72.938004,314.748032 74.630661,315.121002 76.320435C315.493988 55.013779,315.866959 33.698456,316.239929 12.391800C316.612900 18.637604,316.985870 24.877640,317.358841 31.123444C317.731827 26.198303,318.104797 21.278946,318.477783 16.353821C318.850754 18.444397,319.223709 20.543640,319.596680 22.637100C319.969666 33.035233,320.342636 43.442032,320.715622 53.843048C321.088593 45.743103,321.461563 37.640289,321.834549 29.537476L322.953461 36.691605C323.326431 40.146118,323.699402 43.591965,324.072372 47.049362C324.445343 46.184296,324.818314 45.319229,325.191284 44.457047C325.564270 44.177338,325.937241 43.900513,326.310226 43.620804C326.683197 44.670425,327.056168 45.728699,327.429138 46.775421C327.802124 46.048767,328.175095 45.327881,328.548065 44.598328C328.921036 46.363083,329.294006 48.133591,329.666977 49.895447C330.039948 50.180923,330.412933 50.460617,330.785904 50.746094C331.158875 44.872269,331.531845 38.989807,331.904816 33.113098C332.277786 36.034149,332.650772 38.952316,333.023758 41.873367C333.396729 38.626465,333.769699 35.370926,334.142670 32.121155C334.515656 37.253891,334.888626 42.395294,335.261597 47.525146C335.634567 42.057907,336.007553 36.584915,336.380524 31.114792C336.753494 36.561844,337.126450 42.014664,337.499420 47.461716C337.872391 41.114990,338.245377 34.771149,338.618362 28.424423C338.991333 33.421631,339.364304 38.424622,339.737274 43.421844C340.110245 37.646057,340.483215 31.878937,340.856186 26.106033C341.229156 32.986221,341.602127 39.875061,341.975098 46.755249C342.348083 41.210144,342.721069 35.662170,343.094040 30.117065C343.467010 33.871475,343.839981 37.631638,344.212967 41.388931C344.585938 34.906677,344.958908 28.433075,345.331879 21.950821L346.450806 32.850693" style="stroke:rgb(0.000000%,0.000000%,0.000000%); stroke-width: 0.500000;stroke-linecap: round;stroke-dasharray: 3.000000 3.000000 ;stroke-linejoin: round;stroke-miterlimit: 10.000000;fill: none;"></path>
    </g>
  </g>
  <g>
    <defs>
      <clipPath id="CLIP2">
        <path d="M107.000000 172.000000L362.117645 172.000000L362.117645 1.921570L107.000000 1.921570Z" style="fill: black; stroke: none;"></path>
      </clipPath>
    </defs>
    <g clip-path="url(#CLIP2);">
      <path d="M122.666550 161.529770C123.039536 161.506714,123.412506 161.477875,123.785477 161.457687C124.158447 161.428848,124.531418 161.394241,124.904404 161.365417C125.277374 161.342346,125.650345 161.313507,126.023315 161.293320L127.142242 161.206818C127.515213 161.172211,127.888184 161.143372,128.261169 161.105896C128.634140 161.094360,129.007111 161.071289,129.380081 161.056870C129.753052 161.036682,130.126038 161.022263,130.499008 160.999207C130.871979 160.979019,131.244949 160.958832,131.617920 160.935760C131.990891 160.558014,132.363876 160.186035,132.736847 159.808289C133.109818 160.157196,133.482788 160.500336,133.855759 160.849258L134.974686 160.615692C135.347656 160.621460,135.720627 160.630096,136.093613 160.635864C136.466583 160.635864,136.839554 160.630096,137.212524 160.630096L138.331451 160.586853C138.704422 160.563782,139.077393 160.534943,139.450378 160.514755C139.823349 160.113953,140.196320 159.716019,140.569290 159.315201C140.942261 159.672760,141.315247 160.021667,141.688217 160.379227C142.061188 160.359055,142.434158 160.335983,142.807144 160.315796C143.180115 160.292725,143.553085 160.263885,143.926056 160.243713C144.299026 160.223526,144.672012 160.200455,145.044983 160.180267C145.417953 160.157196,145.790924 160.137009,146.163910 160.113953C146.536880 159.943817,146.909851 159.765030,147.282822 159.594910C147.655792 159.721786,148.028763 159.842896,148.401749 159.972656C148.774719 159.949585,149.147690 159.938049,149.520660 159.914978C149.893631 159.692947,150.266617 159.473801,150.639587 159.251755C151.012558 159.421890,151.385529 159.586258,151.758499 159.759262C152.131485 159.736191,152.504456 159.721786,152.877426 159.701599C153.250397 159.430542,153.623367 159.165253,153.996353 158.894196C154.369324 159.121994,154.742294 159.344040,155.115265 159.571838C155.488251 159.551651,155.861221 159.528580,156.234192 159.508392C156.607162 159.488205,156.980133 159.459381,157.353119 159.436310C157.726089 158.874008,158.099060 158.308838,158.472031 157.746536C158.845016 158.265579,159.217987 158.778854,159.590958 159.300781C159.963928 159.280594,160.336899 159.266174,160.709885 159.243103C161.082855 158.651978,161.455826 158.066620,161.828796 157.472595C162.201767 158.017593,162.574753 158.559708,162.947723 159.101807C163.320694 158.522217,163.693665 157.945511,164.066650 157.365906C164.439621 157.908020,164.812592 158.444366,165.185562 158.986465C165.558533 158.966293,165.931503 158.943222,166.304474 158.923035L167.423401 157.660034C167.796371 158.032013,168.169357 158.401108,168.542328 158.773087C168.915298 158.758667,169.288269 158.738480,169.661240 158.724060L170.780167 158.274231C171.153137 158.372269,171.526108 158.473190,171.899094 158.574127C172.272064 156.180756,172.645035 153.784515,173.018005 151.391159L174.136932 158.372269C174.509903 157.853226,174.882874 157.325531,175.255859 156.803619C175.628830 157.224609,176.001801 157.651382,176.374771 158.072388C176.747742 157.094849,177.120712 156.111557,177.493698 155.134033C177.866669 155.840500,178.239639 156.552750,178.612610 157.259216C178.985596 157.530273,179.358566 157.795563,179.731537 158.066620C180.104507 156.711334,180.477493 155.353180,180.850449 153.997910C181.223434 155.174393,181.596405 156.359543,181.969376 157.538925L183.088303 155.782837C183.461273 155.332993,183.834244 154.888931,184.207214 154.439087C184.580200 155.511780,184.953171 156.590225,185.326141 157.660034C185.699112 157.351486,186.072098 157.045837,186.445068 156.740173C186.818039 157.037186,187.191010 157.331299,187.563980 157.631195C187.936951 156.552750,188.309937 155.468521,188.682907 154.390076C189.055878 155.096542,189.428848 155.811661,189.801834 156.518143C190.174805 156.823792,190.547775 157.132339,190.920746 157.438004C191.293732 156.324936,191.666702 155.203232,192.039673 154.090179C192.412643 155.159988,192.785614 156.232666,193.158600 157.302475C193.531570 156.939148,193.904541 156.567154,194.277512 156.203827C194.650497 155.419495,195.023468 154.626526,195.396439 153.839310C195.769409 154.932175,196.142380 156.019287,196.515350 157.109268C196.888336 156.740173,197.261307 156.368195,197.634277 155.996216C198.007248 156.316284,198.380234 156.645020,198.753204 156.967972C199.126175 155.811661,199.499146 154.661118,199.872116 153.504822C200.245087 154.268967,200.618073 155.024460,200.991043 155.788605C201.364014 156.111557,201.736984 156.431641,202.109955 156.751709C202.482941 155.560791,202.855911 154.375656,203.228882 153.184738C203.601852 154.332397,203.974823 155.488708,204.347809 156.639252C204.720779 156.238434,205.093750 155.831848,205.466736 155.433914C205.839706 154.540009,206.212677 153.640335,206.585648 152.749313C206.958618 153.963303,207.331589 155.174393,207.704575 156.388382L208.823486 155.211884C209.196457 154.375656,209.569443 153.533646,209.942413 152.697418C210.315384 153.876801,210.688354 155.061935,211.061340 156.238434C211.434311 155.811661,211.807281 155.390671,212.180252 154.961014L213.299179 152.305252C213.672150 153.548065,214.045120 154.796646,214.418091 156.039474C214.791077 155.609818,215.164032 155.174393,215.537018 154.747635C215.909988 153.868149,216.282959 152.997314,216.655930 152.120697C217.028915 153.363525,217.401886 154.597687,217.774872 155.840500C218.147827 154.332397,218.520813 152.832947,218.893784 151.327728L220.012695 154.519836C220.385666 153.527878,220.758652 152.527283,221.131622 151.535339C221.504593 152.478271,221.877579 153.426956,222.250549 154.369888C222.623520 153.426956,222.996490 152.492676,223.369461 151.549759L224.488388 154.119019C224.861359 153.213577,225.234344 152.299484,225.607315 151.391159L226.726227 154.090179C227.099197 153.127075,227.472183 152.155304,227.845154 151.192200C228.218124 152.106293,228.591095 153.026138,228.964081 153.940231C229.337051 152.968475,229.710022 151.990936,230.082993 151.022064C230.455963 151.936157,230.828949 152.856018,231.201920 153.770096C231.574890 152.769501,231.947861 151.777557,232.320831 150.779846C232.693802 151.541107,233.066772 152.313904,233.439758 153.078049C233.812729 151.869827,234.185699 150.670273,234.558670 149.464935C234.931641 150.791382,235.304626 152.120697,235.677597 153.447144C236.050568 152.313904,236.423538 151.177780,236.796524 150.044540C237.169495 151.099915,237.542465 152.149536,237.915436 153.204926C238.288406 153.305847,238.661377 153.398117,239.034363 153.499054L240.153290 153.092468L241.272202 147.607925C241.645172 149.159286,242.018158 150.707764,242.391129 152.256226C242.764099 151.050903,243.137070 149.842682,243.510040 148.637360C243.883026 149.799438,244.255997 150.964401,244.628967 152.126465C245.001938 150.592407,245.374924 149.064117,245.747894 147.530075C246.120865 149.015106,246.493835 150.505905,246.866806 151.990936C247.239777 150.407867,247.612762 148.821899,247.985733 147.238831C248.358704 148.836319,248.731674 150.442474,249.104645 152.042847L250.223572 148.080826C250.596542 149.329407,250.969513 150.586639,251.342484 151.835236C251.715469 150.949982,252.088440 150.058960,252.461411 149.173706C252.834381 149.542801,253.207367 149.909012,253.580338 150.278107C253.953308 149.779251,254.326294 149.271744,254.699265 148.772888C255.072235 149.894592,255.445206 151.022064,255.818176 152.140884C256.191147 151.007645,256.564117 149.880173,256.937103 148.744049C257.310074 149.813858,257.683044 150.892303,258.056030 151.962112C258.429001 150.828873,258.801971 149.686981,259.174942 148.550858C259.547913 149.643723,259.920898 150.736588,260.293869 151.826584C260.666840 150.655853,261.039810 149.493774,261.412781 148.323044C261.785767 149.430344,262.158737 150.543396,262.531708 151.650681C262.904678 151.705475,263.277664 151.771790,263.650635 151.826584C264.023605 151.486313,264.396576 151.134521,264.769547 150.791382C265.142517 149.629303,265.515488 148.464340,265.888458 147.302261C266.261444 148.651779,266.634415 149.992630,267.007401 151.342148C267.380371 151.443069,267.753342 151.541107,268.126312 151.642029C268.499283 151.492081,268.872253 151.350784,269.245239 151.200851C269.618210 149.785019,269.991180 148.380722,270.364151 146.967773C270.737122 148.037582,271.110092 149.101608,271.483063 150.171417C271.856049 150.272339,272.229019 150.364609,272.602005 150.465530C272.974976 150.180069,273.347946 149.885941,273.720917 149.600464C274.093903 148.101013,274.466873 146.601562,274.839844 145.104996C275.212814 146.073868,275.585785 147.036972,275.958755 148.008743L277.077682 145.482742C277.450653 146.460266,277.823624 147.432022,278.196609 148.409561L279.315536 146.610214C279.688507 147.703079,280.061462 148.793076,280.434433 149.885941C280.807419 148.274033,281.180389 146.653458,281.553375 145.038666C281.926346 146.774567,282.299316 148.507599,282.672287 150.243500C283.045258 148.622940,283.418228 147.011032,283.791199 145.390457C284.164185 146.944702,284.537155 148.507599,284.910126 150.064728C285.283096 148.643127,285.656082 147.215759,286.029053 145.797043C286.402023 147.166733,286.774994 148.545090,287.147964 149.914780C287.520935 148.622940,287.893906 147.322449,288.266891 146.030609C288.639862 147.267670,289.012848 148.507599,289.385818 149.744644C289.758789 147.988556,290.131760 146.238235,290.504745 144.482147C290.877716 146.030609,291.250687 147.587738,291.623657 149.136215C291.996628 147.717499,292.369598 146.287247,292.742584 144.868530C293.115555 146.445847,293.488525 148.017395,293.861496 149.594696L294.980408 145.009827C295.353394 146.503525,295.726364 148.002975,296.099350 149.493774L297.218262 144.995407C297.591248 146.295898,297.964218 147.587738,298.337189 148.888229C298.710159 147.016800,299.083145 145.154007,299.456116 143.282578C299.829086 144.888718,300.202057 146.503525,300.575027 148.109665C300.947998 146.615982,301.320969 145.130936,301.693939 143.640137C302.066925 145.361633,302.439896 147.074463,302.812866 148.793076C303.185852 148.458572,303.558823 148.124084,303.931793 147.786713C304.304764 148.002975,304.677734 148.216354,305.050705 148.429733C305.423676 146.353577,305.796661 144.283173,306.169632 142.207001C306.542603 144.205322,306.915588 146.209396,307.288559 148.207703C307.661530 148.302856,308.034500 148.386490,308.407471 148.478760L309.526382 147.838608C309.899368 146.088287,310.272339 144.340851,310.645325 142.590515C311.018295 144.297592,311.391266 146.001785,311.764236 147.708847C312.137222 147.824188,312.510193 147.945297,312.883179 148.057755L314.002090 146.794754C314.375061 144.283173,314.748032 141.777359,315.121002 139.265778C315.493988 141.728333,315.866959 144.196671,316.239929 146.659225C316.612900 146.615982,316.985870 146.575607,317.358841 146.532349C317.731827 146.765930,318.104797 147.011032,318.477783 147.244598C318.850754 147.253250,319.223709 147.267670,319.596680 147.273438L320.715622 149.072769C321.088593 148.793076,321.461563 148.516251,321.834549 148.236542C322.207520 148.187515,322.580490 148.138504,322.953461 148.086594L324.072372 146.373764C324.445343 147.209991,324.818314 148.051987,325.191284 148.888229C325.564270 148.250961,325.937241 147.607925,326.310226 146.973541C326.683197 146.451614,327.056168 145.923920,327.429138 145.404877L328.548065 146.088287C328.921036 146.480453,329.294006 146.881271,329.666977 147.273438L330.785904 145.110764C331.158875 145.269348,331.531845 145.425064,331.904816 145.580780C332.277786 145.560593,332.650772 145.531754,333.023758 145.511566C333.396729 146.344925,333.769699 147.172501,334.142670 148.008743C334.515656 147.036972,334.888626 146.068100,335.261597 145.096344C335.634567 145.753799,336.007553 146.402588,336.380524 147.060043C336.753494 146.924515,337.126450 146.780334,337.499420 146.644821L338.618362 148.124084C338.991333 147.737686,339.364304 147.351288,339.737274 146.967773C340.110245 146.780334,340.483215 146.601562,340.856186 146.417007L341.975098 144.660919C342.348083 145.231873,342.721069 145.811462,343.094040 146.382416L344.212967 144.989655C344.585938 144.989655,344.958908 144.995407,345.331879 144.995407C345.704849 145.110764,346.077820 145.231873,346.450806 145.347214" style="stroke:rgb(0.000000%,0.000000%,0.000000%); stroke-width: 0.500000;stroke-linecap: round;stroke-linejoin: round;stroke-miterlimit: 10.000000;fill: none;"></path>
    </g>
  </g>
  <path d="M122.666550 179.000000L122.666550 172.000000" style="stroke:rgb(0.000000%,0.000000%,0.000000%); stroke-width: 0.500000;stroke-linecap: round;stroke-linejoin: round;stroke-miterlimit: 10.000000;fill: none;"></path>
  <g transform="translate(120.175873 188.420364)" style="fill: rgb(0.000000%,0.000000%,0.000000%);">
    <use xlink:href="#GLYPHcmr10_48"></use>
  </g>
  <path d="M167.423416 179.000000L167.423416 172.000000" style="stroke:rgb(0.000000%,0.000000%,0.000000%); stroke-width: 0.500000;stroke-linecap: round;stroke-linejoin: round;stroke-miterlimit: 10.000000;fill: none;"></path>
  <g transform="translate(154.091431 190.109665)" style="fill: rgb(0.000000%,0.000000%,0.000000%);">
    <use xlink:href="#GLYPHcmr10_50"></use>
  </g>
  <g transform="translate(159.072769 190.109665)" style="fill: rgb(0.000000%,0.000000%,0.000000%);">
    <use xlink:href="#GLYPHcmsy10_2"></use>
  </g>
  <g transform="translate(166.821472 190.109665)" style="fill: rgb(0.000000%,0.000000%,0.000000%);">
    <use xlink:href="#GLYPHcmr10_49"></use>
    <use xlink:href="#GLYPHcmr10_48" x="5.000095"></use>
  </g>
  <g transform="translate(176.784164 186.494263)" style="fill: rgb(0.000000%,0.000000%,0.000000%);">
    <use xlink:href="#GLYPHcmr7_52"></use>
  </g>
  <path d="M212.180267 179.000000L212.180267 172.000000" style="stroke:rgb(0.000000%,0.000000%,0.000000%); stroke-width: 0.500000;stroke-linecap: round;stroke-linejoin: round;stroke-miterlimit: 10.000000;fill: none;"></path>
  <g transform="translate(198.848282 190.109665)" style="fill: rgb(0.000000%,0.000000%,0.000000%);">
    <use xlink:href="#GLYPHcmr10_52"></use>
  </g>
  <g transform="translate(203.829620 190.109665)" style="fill: rgb(0.000000%,0.000000%,0.000000%);">
    <use xlink:href="#GLYPHcmsy10_2"></use>
  </g>
  <g transform="translate(211.578323 190.109665)" style="fill: rgb(0.000000%,0.000000%,0.000000%);">
    <use xlink:href="#GLYPHcmr10_49"></use>
    <use xlink:href="#GLYPHcmr10_48" x="5.000095"></use>
  </g>
  <g transform="translate(221.541016 186.494263)" style="fill: rgb(0.000000%,0.000000%,0.000000%);">
    <use xlink:href="#GLYPHcmr7_52"></use>
  </g>
  <path d="M256.937103 179.000000L256.937103 172.000000" style="stroke:rgb(0.000000%,0.000000%,0.000000%); stroke-width: 0.500000;stroke-linecap: round;stroke-linejoin: round;stroke-miterlimit: 10.000000;fill: none;"></path>
  <g transform="translate(243.605118 190.109665)" style="fill: rgb(0.000000%,0.000000%,0.000000%);">
    <use xlink:href="#GLYPHcmr10_54"></use>
  </g>
  <g transform="translate(248.586456 190.109665)" style="fill: rgb(0.000000%,0.000000%,0.000000%);">
    <use xlink:href="#GLYPHcmsy10_2"></use>
  </g>
  <g transform="translate(256.335159 190.109665)" style="fill: rgb(0.000000%,0.000000%,0.000000%);">
    <use xlink:href="#GLYPHcmr10_49"></use>
    <use xlink:href="#GLYPHcmr10_48" x="5.000095"></use>
  </g>
  <g transform="translate(266.297852 186.494263)" style="fill: rgb(0.000000%,0.000000%,0.000000%);">
    <use xlink:href="#GLYPHcmr7_52"></use>
  </g>
  <path d="M301.693970 179.000000L301.693970 172.000000" style="stroke:rgb(0.000000%,0.000000%,0.000000%); stroke-width: 0.500000;stroke-linecap: round;stroke-linejoin: round;stroke-miterlimit: 10.000000;fill: none;"></path>
  <g transform="translate(288.361984 190.109665)" style="fill: rgb(0.000000%,0.000000%,0.000000%);">
    <use xlink:href="#GLYPHcmr10_56"></use>
  </g>
  <g transform="translate(293.343323 190.109665)" style="fill: rgb(0.000000%,0.000000%,0.000000%);">
    <use xlink:href="#GLYPHcmsy10_2"></use>
  </g>
  <g transform="translate(301.092026 190.109665)" style="fill: rgb(0.000000%,0.000000%,0.000000%);">
    <use xlink:href="#GLYPHcmr10_49"></use>
    <use xlink:href="#GLYPHcmr10_48" x="5.000095"></use>
  </g>
  <g transform="translate(311.054718 186.494263)" style="fill: rgb(0.000000%,0.000000%,0.000000%);">
    <use xlink:href="#GLYPHcmr7_52"></use>
  </g>
  <path d="M346.450806 179.000000L346.450806 172.000000" style="stroke:rgb(0.000000%,0.000000%,0.000000%); stroke-width: 0.500000;stroke-linecap: round;stroke-linejoin: round;stroke-miterlimit: 10.000000;fill: none;"></path>
  <g transform="translate(339.483826 190.109665)" style="fill: rgb(0.000000%,0.000000%,0.000000%);">
    <use xlink:href="#GLYPHcmr10_49"></use>
    <use xlink:href="#GLYPHcmr10_48" x="5.000095"></use>
  </g>
  <g transform="translate(349.446533 186.494263)" style="fill: rgb(0.000000%,0.000000%,0.000000%);">
    <use xlink:href="#GLYPHcmr7_53"></use>
  </g>
  <path d="M100.000000 161.529770L107.000000 161.529770" style="stroke:rgb(0.000000%,0.000000%,0.000000%); stroke-width: 0.500000;stroke-linecap: round;stroke-linejoin: round;stroke-miterlimit: 10.000000;fill: none;"></path>
  <g transform="translate(92.018661 164.739960)" style="fill: rgb(0.000000%,0.000000%,0.000000%);">
    <use xlink:href="#GLYPHcmr10_48"></use>
  </g>
  <path d="M100.000000 114.746826L107.000000 114.746826" style="stroke:rgb(0.000000%,0.000000%,0.000000%); stroke-width: 0.500000;stroke-linecap: round;stroke-linejoin: round;stroke-miterlimit: 10.000000;fill: none;"></path>
  <g transform="translate(84.269913 117.957016)" style="fill: rgb(0.000000%,0.000000%,0.000000%);">
    <use xlink:href="#GLYPHcmr10_48"></use>
    <use xlink:href="#GLYPHcmr10_46" x="5.000095"></use>
    <use xlink:href="#GLYPHcmr10_49" x="7.777925"></use>
  </g>
  <path d="M100.000000 67.969635L107.000000 67.969635" style="stroke:rgb(0.000000%,0.000000%,0.000000%); stroke-width: 0.500000;stroke-linecap: round;stroke-linejoin: round;stroke-miterlimit: 10.000000;fill: none;"></path>
  <g transform="translate(84.269913 71.179825)" style="fill: rgb(0.000000%,0.000000%,0.000000%);">
    <use xlink:href="#GLYPHcmr10_48"></use>
    <use xlink:href="#GLYPHcmr10_46" x="5.000095"></use>
    <use xlink:href="#GLYPHcmr10_50" x="7.777925"></use>
  </g>
  <path d="M100.000000 21.186676L107.000000 21.186676" style="stroke:rgb(0.000000%,0.000000%,0.000000%); stroke-width: 0.500000;stroke-linecap: round;stroke-linejoin: round;stroke-miterlimit: 10.000000;fill: none;"></path>
  <g transform="translate(84.269913 24.396866)" style="fill: rgb(0.000000%,0.000000%,0.000000%);">
    <use xlink:href="#GLYPHcmr10_48"></use>
    <use xlink:href="#GLYPHcmr10_46" x="5.000095"></use>
    <use xlink:href="#GLYPHcmr10_51" x="7.777925"></use>
  </g>
  <path d="M107.000000 172.000000C192.037918 172.000000,277.079727 172.000000,362.117645 172.000000C362.117645 115.308060,362.117645 58.613510,362.117645 1.921570C277.079727 1.921570,192.037918 1.921570,107.000000 1.921570C107.000000 58.613510,107.000000 115.308060,107.000000 172.000000Z" style="stroke:rgb(0.000000%,0.000000%,0.000000%); stroke-width: 0.500000;stroke-linecap: round;stroke-linejoin: round;stroke-miterlimit: 10.000000;fill: none;"></path>
  <g transform="translate(176.729095 203.147797)" style="fill: rgb(0.000000%,0.000000%,0.000000%);">
    <use xlink:href="#GLYPHpplr8r_83"></use>
    <use xlink:href="#GLYPHpplr8r_105" x="5.250071"></use>
    <use xlink:href="#GLYPHpplr8r_122" x="8.160020"></use>
    <use xlink:href="#GLYPHpplr8r_101" x="13.160099"></use>
  </g>
  <g transform="translate(197.102493 203.147797)" style="fill: rgb(0.000000%,0.000000%,0.000000%);">
    <use xlink:href="#GLYPHpplr8r_111"></use>
    <use xlink:href="#GLYPHpplr8r_102" x="5.460042"></use>
  </g>
  <g transform="translate(208.350189 203.147797)" style="fill: rgb(0.000000%,0.000000%,0.000000%);">
    <use xlink:href="#GLYPHpplr8r_116"></use>
    <use xlink:href="#GLYPHpplr8r_104" x="3.259940"></use>
    <use xlink:href="#GLYPHpplr8r_101" x="9.079974"></use>
  </g>
  <g transform="translate(224.658798 203.147797)" style="fill: rgb(0.000000%,0.000000%,0.000000%);">
    <use xlink:href="#GLYPHpplr8r_100"></use>
    <use xlink:href="#GLYPHpplr8r_105" x="6.110078"></use>
    <use xlink:href="#GLYPHpplr8r_99" x="9.020027"></use>
    <use xlink:href="#GLYPHpplr8r_116" x="13.460037"></use>
    <use xlink:href="#GLYPHpplr8r_105" x="16.719977"></use>
    <use xlink:href="#GLYPHpplr8r_111" x="19.629925"></use>
    <use xlink:href="#GLYPHpplr8r_110" x="25.089967"></use>
    <use xlink:href="#GLYPHpplr8r_97" x="30.910001"></use>
    <use xlink:href="#GLYPHpplr8r_114" x="35.910081"></use>
    <use xlink:href="#GLYPHpplr8r_121" x="39.860094"></use>
  </g>
  <path d="M367.867645 89.528687L396.214096 89.528687" style="stroke:rgb(0.000000%,0.000000%,0.000000%); stroke-width: 0.500000;stroke-linecap: round;stroke-dasharray: 3.000000 3.000000 ;stroke-linejoin: round;stroke-miterlimit: 10.000000;fill: none;"></path>
  <g transform="translate(402.214096 93.020569)" style="fill: rgb(0.000000%,0.000000%,0.000000%);">
    <use xlink:href="#GLYPHpplr8r_77"></use>
    <use xlink:href="#GLYPHpplr8r_111" x="9.460108"></use>
    <use xlink:href="#GLYPHpplr8r_110" x="14.920150"></use>
    <use xlink:href="#GLYPHpplr8r_97" x="20.740184"></use>
    <use xlink:href="#GLYPHpplr8r_100" x="25.740264"></use>
    <use xlink:href="#GLYPHpplr8r_105" x="31.850342"></use>
    <use xlink:href="#GLYPHpplr8r_99" x="34.760291"></use>
  </g>
  <path d="M367.867645 100.497482L396.214096 100.497482" style="stroke:rgb(0.000000%,0.000000%,0.000000%); stroke-width: 1.000000;stroke-linecap: round;stroke-linejoin: round;stroke-miterlimit: 10.000000;fill: none;"></path>
  <g transform="translate(402.214096 103.989365)" style="fill: rgb(0.000000%,0.000000%,0.000000%);">
    <use xlink:href="#GLYPHpplr8r_72"></use>
    <use xlink:href="#GLYPHpplr8r_105" x="8.320074"></use>
    <use xlink:href="#GLYPHpplr8r_103" x="11.230023"></use>
    <use xlink:href="#GLYPHpplr8r_104" x="16.790049"></use>
    <use xlink:href="#GLYPHpplr8r_101" x="22.610083"></use>
    <use xlink:href="#GLYPHpplr8r_114" x="27.400085"></use>
  </g>
  <g transform="translate(433.267303 103.989365)" style="fill: rgb(0.000000%,0.000000%,0.000000%);">
    <use xlink:href="#GLYPHpplr8r_45"></use>
    <use xlink:href="#GLYPHpplr8r_79" x="3.330012"></use>
    <use xlink:href="#GLYPHpplr8r_114" x="11.190124"></use>
  </g>
  <g transform="translate(448.171402 103.989365)" style="fill: rgb(0.000000%,0.000000%,0.000000%);">
    <use xlink:href="#GLYPHpplr8r_100"></use>
    <use xlink:href="#GLYPHpplr8r_101" x="6.110078"></use>
    <use xlink:href="#GLYPHpplr8r_114" x="10.900080"></use>
  </g>
  <g transform="translate(-0.101288 98.866165)" style="fill: rgb(0.000000%,0.000000%,0.000000%);">
    <use xlink:href="#GLYPHpplr8r_69"></use>
    <use xlink:href="#GLYPHpplr8r_120" x="6.110078"></use>
    <use xlink:href="#GLYPHpplr8r_101" x="11.270075"></use>
    <use xlink:href="#GLYPHpplr8r_99" x="16.060077"></use>
    <use xlink:href="#GLYPHpplr8r_117" x="20.500087"></use>
    <use xlink:href="#GLYPHpplr8r_116" x="26.530077"></use>
    <use xlink:href="#GLYPHpplr8r_105" x="29.790016"></use>
    <use xlink:href="#GLYPHpplr8r_111" x="32.699965"></use>
    <use xlink:href="#GLYPHpplr8r_110" x="38.160006"></use>
  </g>
  <g transform="translate(46.204407 98.866165)" style="fill: rgb(0.000000%,0.000000%,0.000000%);">
    <use xlink:href="#GLYPHpplr8r_116"></use>
    <use xlink:href="#GLYPHpplr8r_105" x="3.259940"></use>
    <use xlink:href="#GLYPHpplr8r_109" x="6.169888"></use>
    <use xlink:href="#GLYPHpplr8r_101" x="14.999978"></use>
  </g>
  <g transform="translate(68.410812 98.866165)" style="fill: rgb(0.000000%,0.000000%,0.000000%);">
    <use xlink:href="#GLYPHpplr8r_40"></use>
    <use xlink:href="#GLYPHpplr8r_115" x="3.330012"></use>
    <use xlink:href="#GLYPHpplr8r_41" x="7.570069"></use>
  </g>
</svg>
